<?xml version="1.0" encoding="UTF-8" standalone="no"?>
<!-- Created with Inkscape (http://www.inkscape.org/) -->

<svg
   xmlns="http://www.w3.org/2000/svg"
   width="10.318816mm"
   height="8.4666662mm"
   viewBox="0 0 10.318816 8.4666662"
   version="1.1"
   id="svg11246">
  <g
     id="layer1"
     stroke="none"
     transform="translate(-163.31372,-92.542666)">
    <g
       id="icon-search-active"
       transform="matrix(0.26458333,0,0,0.26458333,142.14705,16.078084)">
      <g
         id="search_2">
        <path
           d="m 101,304 c 0,-3.866 3.134,-7 7,-7 3.866,0 7,3.134 7,7 0,1.886 -0.746,3.598 -1.959,4.856 -0.034,0.027 -0.067,0.056 -0.098,0.087 -0.031,0.031 -0.06,0.064 -0.087,0.098 -1.258,1.213 -2.97,1.959 -4.856,1.959 -3.866,0 -7,-3.134 -7,-7 z m 12.618,7.032 c -1.54,1.232 -3.493,1.968 -5.618,1.968 -4.971,0 -9,-4.029 -9,-9 0,-4.971 4.029,-9 9,-9 4.971,0 9,4.029 9,9 0,2.125 -0.736,4.078 -1.968,5.618 l 3.675,3.675 c 0.391,0.39 0.391,1.024 0,1.414 -0.39,0.391 -1.024,0.391 -1.414,0 z"
           id="Union"
           style="clip-rule:evenodd;fill-rule:evenodd" />
      </g>
      <path
         d="M 93.7287,291.183 C 87.3983,292.216 82.4943,297.494 82.0352,304 h 7.0055 c 0.2871,-4.646 1.9217,-9.098 4.688,-12.817 z m 10.4923,2.483 c 0.779,-0.285 1.6,-0.484 2.451,-0.587 C 103.841,290.543 100.101,289 96,289 c -8.8366,0 -16,7.163 -16,16 0,8.837 7.1634,16 16,16 5.058,0 9.568,-2.347 12.5,-6.011 -0.166,0.007 -0.333,0.011 -0.5,0.011 -0.689,0 -1.363,-0.063 -2.017,-0.185 -2.037,2.072 -4.715,3.513 -7.7117,4.002 1.3576,-1.825 2.4427,-3.827 3.2297,-5.941 -0.584,-0.428 -1.124,-0.913 -1.6117,-1.445 -0.8466,2.553 -2.1602,4.944 -3.8893,7.043 -2.913,-3.537 -4.6466,-7.9 -4.9552,-12.474 h 6.1366 C 97.0622,305.351 97,304.683 97,304 h -5.9552 c 0.3086,-4.574 2.0422,-8.937 4.9552,-12.474 1.4102,1.712 2.544,3.618 3.3736,5.648 0.4499,-0.568 0.9544,-1.09 1.5064,-1.559 -0.705,-1.56 -1.5785,-3.047 -2.6087,-4.432 2.1967,0.359 4.2217,1.228 5.9497,2.483 z M 89.0407,306 h -7.0055 c 0.4591,6.506 5.3631,11.784 11.6935,12.817 -2.7663,-3.719 -4.4009,-8.171 -4.688,-12.817 z"
         id="Subtract"
         style="clip-rule:evenodd;fill-rule:evenodd" />
    </g>
  </g>
</svg>
