<?xml version="1.0" encoding="UTF-8"?>
<svg width="166px" height="56px" viewBox="0 0 166 56" version="1.1" xmlns="http://www.w3.org/2000/svg" xmlns:xlink="http://www.w3.org/1999/xlink">
    <!-- Generator: Sketch 52.5 (67469) - http://www.bohemiancoding.com/sketch -->
    <title>icon-black</title>
    <desc>Created with Sketch.</desc>
    <g id="Symbols" stroke="none" stroke-width="1" fill="none" fill-rule="evenodd">
        <g id="logo/topcoder/icon/black" fill="#2A2A2A">
            <g id="icon-black">
                <path d="M82.9597,28.3738 C84.3497,27.8318 85.6497,27.3188 86.8287,26.8438 C96.1477,23.0808 108.8247,19.3098 121.0257,17.1298 C109.9847,6.4828 96.1327,0.0008 82.9597,0.0008 C69.7877,0.0008 55.9357,6.4828 44.8947,17.1298 C57.0957,19.3098 69.7717,23.0808 79.0917,26.8438 C80.2707,27.3188 81.5697,27.8318 82.9597,28.3738" id="Fill-18"></path>
                <path d="M78.8396,30.5418 C78.8046,30.5268 78.7696,30.5138 78.7336,30.4988 C78.7296,30.4978 78.7266,30.4968 78.7226,30.4948 C78.1666,30.2748 77.6286,30.0608 77.1156,29.8538 C77.1086,29.8508 77.0996,29.8468 77.0916,29.8438 C76.5686,29.6328 76.0306,29.4208 75.4876,29.2098 C75.4176,29.1838 75.3486,29.1558 75.2786,29.1298 C75.2386,29.1138 75.1996,29.0988 75.1596,29.0828 C74.6256,28.8778 74.0826,28.6718 73.5296,28.4668 C73.5176,28.4618 73.5046,28.4568 73.4906,28.4518 C73.4176,28.4258 73.3436,28.3978 73.2706,28.3708 C72.7416,28.1768 72.2056,27.9808 71.6616,27.7878 C71.5946,27.7638 71.5276,27.7398 71.4606,27.7158 C70.8736,27.5078 70.2776,27.3008 69.6756,27.0948 C69.6136,27.0738 69.5536,27.0538 69.4926,27.0318 C69.4506,27.0188 69.4086,27.0038 69.3666,26.9898 C68.1176,26.5648 66.8366,26.1458 65.5286,25.7348 C65.4796,25.7198 65.4286,25.7028 65.3786,25.6878 C65.3516,25.6788 65.3246,25.6708 65.2986,25.6618 C64.6406,25.4558 63.9766,25.2518 63.3066,25.0508 C63.2746,25.0408 63.2416,25.0308 63.2106,25.0208 C63.1926,25.0168 63.1736,25.0108 63.1536,25.0048 C61.7726,24.5908 60.3666,24.1858 58.9436,23.7938 C58.9326,23.7908 58.9206,23.7878 58.9086,23.7848 C58.8646,23.7718 58.8196,23.7598 58.7766,23.7478 C57.3286,23.3508 55.8646,22.9668 54.3896,22.5998 C54.3706,22.5948 54.3536,22.5908 54.3346,22.5858 C53.5866,22.3988 52.8366,22.2178 52.0846,22.0408 L52.0836,22.0398 L52.0576,22.0338 C50.5496,21.6788 49.0346,21.3418 47.5196,21.0258 L47.4896,21.0208 C47.4776,21.0178 47.4656,21.0158 47.4526,21.0128 C45.9306,20.6958 44.4086,20.3998 42.8946,20.1298 C33.5026,29.1858 26.1496,41.2558 22.9786,54.9158 L22.8326,55.5208 C27.3146,55.7068 31.4356,53.2768 32.7276,52.5568 C49.1656,43.3778 69.1936,33.2318 80.9596,31.3738 C80.9676,31.3768 80.9756,31.3808 80.9836,31.3838 C80.2406,31.0938 79.5266,30.8128 78.8396,30.5418" id="Fill-20"></path>
                <path d="M19.6658,53.9158 C22.8368,40.2558 29.9068,28.1868 39.2978,19.1318 C21.1568,15.8918 4.3528,16.1718 0.9188,25.2498 C-1.5022,31.6528 3.4528,41.3138 11.9588,50.8468 C14.2918,53.4608 16.9648,55.0418 19.5198,55.1468 C19.5198,55.1468 19.5278,54.9518 19.5698,54.5748 C19.6138,54.1748 19.6658,53.9158 19.6658,53.9158" id="Fill-22"></path>
                <path d="M87.0251,30.5418 C87.0601,30.5268 87.0961,30.5138 87.1311,30.4988 C87.1351,30.4978 87.1381,30.4968 87.1421,30.4948 C87.6981,30.2748 88.2361,30.0608 88.7491,29.8538 C88.7571,29.8508 88.7661,29.8468 88.7731,29.8438 C89.2961,29.6328 89.8341,29.4208 90.3781,29.2098 C90.4471,29.1838 90.5161,29.1558 90.5861,29.1298 C90.6261,29.1138 90.6651,29.0988 90.7051,29.0828 C91.2391,28.8778 91.7821,28.6718 92.3351,28.4668 C92.3471,28.4618 92.3611,28.4568 92.3741,28.4518 C92.4471,28.4258 92.5211,28.3978 92.5951,28.3708 C93.1241,28.1768 93.6601,27.9808 94.2041,27.7878 C94.2711,27.7638 94.3371,27.7398 94.4051,27.7158 C94.9921,27.5078 95.5881,27.3008 96.1901,27.0948 C96.2511,27.0738 96.3121,27.0538 96.3731,27.0318 C96.4151,27.0188 96.4571,27.0038 96.4981,26.9898 C97.7481,26.5648 99.0281,26.1458 100.3361,25.7348 C100.3861,25.7198 100.4361,25.7028 100.4861,25.6878 C100.5131,25.6788 100.5401,25.6708 100.5671,25.6618 C101.2251,25.4558 101.8881,25.2518 102.5591,25.0508 C102.5901,25.0408 102.6231,25.0308 102.6551,25.0208 C102.6731,25.0168 102.6921,25.0108 102.7111,25.0048 C104.0921,24.5908 105.4991,24.1858 106.9211,23.7938 C106.9331,23.7908 106.9441,23.7878 106.9561,23.7848 C107.0011,23.7718 107.0451,23.7598 107.0891,23.7478 C108.5361,23.3508 110.0011,22.9668 111.4751,22.5998 C111.4941,22.5948 111.5121,22.5908 111.5311,22.5858 C112.2781,22.3988 113.0281,22.2178 113.7801,22.0408 L113.7811,22.0398 L113.8071,22.0338 C115.3151,21.6788 116.8311,21.3418 118.3451,21.0258 C118.3561,21.0238 118.3661,21.0218 118.3761,21.0208 C118.3871,21.0178 118.4001,21.0158 118.4121,21.0128 C119.9341,20.6958 121.4561,20.3998 122.9711,20.1298 C132.3621,29.1858 139.7161,41.2558 142.8871,54.9158 L143.0331,55.5208 C138.5501,55.7068 134.4291,53.2768 133.1371,52.5568 C116.6991,43.3778 96.6711,33.2318 84.9051,31.3738 C84.8971,31.3768 84.8891,31.3808 84.8811,31.3838 C85.6251,31.0938 86.3391,30.8128 87.0251,30.5418" id="Fill-24"></path>
                <path d="M146.2,53.9158 C143.029,40.2558 135.959,28.1868 126.568,19.1318 C144.708,15.8918 161.513,16.1718 164.946,25.2498 C167.368,31.6528 162.413,41.3138 153.906,50.8468 C151.574,53.4608 148.901,55.0418 146.345,55.1468 C146.345,55.1468 146.337,54.9518 146.296,54.5748 C146.252,54.1748 146.2,53.9158 146.2,53.9158" id="Fill-26"></path>
            </g>
        </g>
    </g>
</svg>